<mxfile host="app.diagrams.net" agent="Mozilla/5.0 (Windows NT 10.0; Win64; x64) AppleWebKit/537.36 (KHTML, like Gecko) Chrome/131.0.0.0 Safari/537.36 Edg/131.0.0.0" version="25.0.3">
  <diagram name="第 1 页" id="PG2xUZhAAmy-bLEZqsFV">
    <mxGraphModel dx="2253" dy="1958" grid="1" gridSize="10" guides="1" tooltips="1" connect="1" arrows="1" fold="1" page="1" pageScale="1" pageWidth="827" pageHeight="1169" math="0" shadow="0">
      <root>
        <mxCell id="0" />
        <mxCell id="1" parent="0" />
        <mxCell id="MxzImj7wCzPGFJL9YipR-3" value="" style="edgeStyle=orthogonalEdgeStyle;rounded=0;orthogonalLoop=1;jettySize=auto;html=1;" edge="1" parent="1" source="MxzImj7wCzPGFJL9YipR-1">
          <mxGeometry relative="1" as="geometry">
            <mxPoint x="220" y="250" as="targetPoint" />
          </mxGeometry>
        </mxCell>
        <mxCell id="MxzImj7wCzPGFJL9YipR-1" value="&lt;font style=&quot;font-size: 18px;&quot;&gt;输入&lt;/font&gt;" style="rounded=1;whiteSpace=wrap;html=1;" vertex="1" parent="1">
          <mxGeometry x="20" y="220" width="120" height="60" as="geometry" />
        </mxCell>
        <mxCell id="MxzImj7wCzPGFJL9YipR-7" style="edgeStyle=orthogonalEdgeStyle;rounded=0;orthogonalLoop=1;jettySize=auto;html=1;entryX=0;entryY=0.5;entryDx=0;entryDy=0;" edge="1" parent="1" source="MxzImj7wCzPGFJL9YipR-4" target="MxzImj7wCzPGFJL9YipR-5">
          <mxGeometry relative="1" as="geometry" />
        </mxCell>
        <mxCell id="MxzImj7wCzPGFJL9YipR-4" value="&lt;span style=&quot;font-size: 18px;&quot;&gt;预处理&lt;/span&gt;" style="rounded=1;whiteSpace=wrap;html=1;" vertex="1" parent="1">
          <mxGeometry x="220" y="220" width="120" height="60" as="geometry" />
        </mxCell>
        <mxCell id="MxzImj7wCzPGFJL9YipR-8" style="edgeStyle=orthogonalEdgeStyle;rounded=0;orthogonalLoop=1;jettySize=auto;html=1;" edge="1" parent="1" source="MxzImj7wCzPGFJL9YipR-5" target="MxzImj7wCzPGFJL9YipR-6">
          <mxGeometry relative="1" as="geometry" />
        </mxCell>
        <mxCell id="MxzImj7wCzPGFJL9YipR-5" value="&lt;span style=&quot;font-size: 18px;&quot;&gt;编写&lt;/span&gt;" style="rounded=1;whiteSpace=wrap;html=1;" vertex="1" parent="1">
          <mxGeometry x="420" y="220" width="120" height="60" as="geometry" />
        </mxCell>
        <mxCell id="MxzImj7wCzPGFJL9YipR-12" style="edgeStyle=orthogonalEdgeStyle;rounded=0;orthogonalLoop=1;jettySize=auto;html=1;entryX=0;entryY=0.5;entryDx=0;entryDy=0;" edge="1" parent="1" source="MxzImj7wCzPGFJL9YipR-6" target="MxzImj7wCzPGFJL9YipR-9">
          <mxGeometry relative="1" as="geometry" />
        </mxCell>
        <mxCell id="MxzImj7wCzPGFJL9YipR-6" value="&lt;span style=&quot;font-size: 18px;&quot;&gt;质检&lt;/span&gt;" style="rounded=1;whiteSpace=wrap;html=1;" vertex="1" parent="1">
          <mxGeometry x="620" y="220" width="120" height="60" as="geometry" />
        </mxCell>
        <mxCell id="MxzImj7wCzPGFJL9YipR-9" value="&lt;span style=&quot;font-size: 18px;&quot;&gt;...&lt;/span&gt;" style="rounded=1;whiteSpace=wrap;html=1;" vertex="1" parent="1">
          <mxGeometry x="820" y="220" width="120" height="60" as="geometry" />
        </mxCell>
        <mxCell id="MxzImj7wCzPGFJL9YipR-11" style="edgeStyle=orthogonalEdgeStyle;rounded=0;orthogonalLoop=1;jettySize=auto;html=1;exitX=1;exitY=0.5;exitDx=0;exitDy=0;" edge="1" parent="1" source="MxzImj7wCzPGFJL9YipR-10" target="MxzImj7wCzPGFJL9YipR-1">
          <mxGeometry relative="1" as="geometry" />
        </mxCell>
        <mxCell id="MxzImj7wCzPGFJL9YipR-10" value="&lt;span style=&quot;font-size: 18px;&quot;&gt;...&lt;/span&gt;" style="rounded=1;whiteSpace=wrap;html=1;" vertex="1" parent="1">
          <mxGeometry x="-180" y="220" width="120" height="60" as="geometry" />
        </mxCell>
        <mxCell id="MxzImj7wCzPGFJL9YipR-14" value="&lt;div&gt;&lt;br&gt;&lt;/div&gt;" style="text;html=1;align=center;verticalAlign=middle;resizable=0;points=[];autosize=1;strokeColor=none;fillColor=none;" vertex="1" parent="1">
          <mxGeometry x="170" y="425" width="20" height="30" as="geometry" />
        </mxCell>
        <mxCell id="MxzImj7wCzPGFJL9YipR-15" value="&lt;div&gt;&lt;font style=&quot;font-size: 18px;&quot;&gt;使用ocr将pdf转为word时，一定程度上会有错误识别的情况&lt;/font&gt;&lt;/div&gt;&lt;div&gt;&lt;span style=&quot;white-space: normal;&quot;&gt;&lt;font style=&quot;font-size: 18px;&quot;&gt;&lt;br&gt;&lt;/font&gt;&lt;/span&gt;&lt;/div&gt;&lt;div&gt;&lt;span style=&quot;white-space: normal;&quot;&gt;&lt;font style=&quot;font-size: 18px;&quot;&gt;对于非扫描件，可以利用Pdf解析库来转换，但解析非扫描件PDF也可能遇到挑战，特别是当涉及到复杂的布局或者嵌入的对象时。&lt;/font&gt;&lt;/span&gt;&lt;/div&gt;&lt;div&gt;&lt;br&gt;&lt;/div&gt;" style="text;html=1;align=left;verticalAlign=middle;whiteSpace=wrap;rounded=0;strokeColor=default;fillColor=default;" vertex="1" parent="1">
          <mxGeometry x="162.5" y="340" width="235" height="260" as="geometry" />
        </mxCell>
        <mxCell id="MxzImj7wCzPGFJL9YipR-18" value="&lt;div&gt;&lt;font style=&quot;font-size: 18px;&quot;&gt;使用ocr将pdf转为word时，一定程度上会有错误识别的情况&lt;/font&gt;&lt;/div&gt;&lt;div&gt;&lt;span style=&quot;white-space: normal;&quot;&gt;&lt;font style=&quot;font-size: 18px;&quot;&gt;&lt;br&gt;&lt;/font&gt;&lt;/span&gt;&lt;/div&gt;&lt;div&gt;&lt;span style=&quot;white-space: normal;&quot;&gt;&lt;font style=&quot;font-size: 18px;&quot;&gt;对于非扫描件，可以利用Pdf解析库来转换，但解析非扫描件PDF也可能遇到挑战，特别是当涉及到复杂的布局或者嵌入的对象时。&lt;/font&gt;&lt;/span&gt;&lt;/div&gt;&lt;div&gt;&lt;br&gt;&lt;/div&gt;" style="text;html=1;align=left;verticalAlign=middle;whiteSpace=wrap;rounded=0;strokeColor=default;fillColor=default;" vertex="1" parent="1">
          <mxGeometry x="362.5" y="-110" width="235" height="260" as="geometry" />
        </mxCell>
      </root>
    </mxGraphModel>
  </diagram>
</mxfile>
